<?xml version="1.0" standalone="no"?><!DOCTYPE svg PUBLIC "-//W3C//DTD SVG 1.1//EN" "http://www.w3.org/Graphics/SVG/1.1/DTD/svg11.dtd"><svg t="1595606014978" class="icon" viewBox="0 0 1024 1024" version="1.1" xmlns="http://www.w3.org/2000/svg" p-id="1591" xmlns:xlink="http://www.w3.org/1999/xlink" width="200" height="200"><defs><style type="text/css"></style></defs><path d="M512.058541 1024A512 512 0 1 0 0 512a512.58541001 512.58541001 0 0 0 512.058541 512z m0-952.872627a440.872627 440.872627 0 1 1-440.931168 440.872627 441.399497 441.399497 0 0 1 440.931168-440.872627zM223.099931 454.278527a35.592957 35.592957 0 0 1 50.28676-50.286759l236.330208 236.330208 236.330208-236.330208a35.592957 35.592957 0 0 1 50.345301 50.286759l-261.619941 261.50285899a35.592957 35.592957 0 0 1-50.286759 2e-8L223.099931 454.278527z" fill="#AC8EC9" p-id="1592"></path></svg>